<?xml version="1.0" encoding="UTF-8"?>
<!DOCTYPE svg PUBLIC "-//W3C//DTD SVG 1.1//EN" "http://www.w3.org/Graphics/SVG/1.1/DTD/svg11.dtd">
<svg xmlns="http://www.w3.org/2000/svg" version="1.1" width="2000px" height="1500px" style="shape-rendering:geometricPrecision; text-rendering:geometricPrecision; image-rendering:optimizeQuality; fill-rule:evenodd; clip-rule:evenodd" xmlns:xlink="http://www.w3.org/1999/xlink">
<g><path style="opacity:1" fill="#000000" d="M -0.5,-0.5 C 666.167,-0.5 1332.83,-0.5 1999.5,-0.5C 1999.5,499.5 1999.5,999.5 1999.5,1499.5C 1332.83,1499.5 666.167,1499.5 -0.5,1499.5C -0.5,999.5 -0.5,499.5 -0.5,-0.5 Z"/></g>
<g><path style="opacity:1" fill="#ca0b0b" d="M 742.5,274.5 C 759.591,273.217 775.591,276.717 790.5,285C 792.378,286.543 793.878,288.376 795,290.5C 852.869,483.774 910.536,677.107 968,870.5C 1013.75,870.426 1059.59,870.593 1105.5,871C 1131.56,876.957 1139.06,892.123 1128,916.5C 1126.47,917.729 1125.3,919.229 1124.5,921C 1077.83,921.5 1031.17,921.667 984.5,921.5C 1003.23,984.845 1022.06,1048.18 1041,1111.5C 1041.67,1118.17 1041.67,1124.83 1041,1131.5C 1025.57,1168.65 999.74,1178.15 963.5,1160C 960.679,1158.18 958.179,1156.01 956,1153.5C 933.026,1076.25 909.859,999.08 886.5,922C 802.831,921.167 719.165,921.333 635.5,922.5C 617.333,971.5 599.167,1020.5 581,1069.5C 563.565,1110.56 539.065,1146.73 507.5,1178C 476.589,1205.65 440.256,1219.98 398.5,1221C 369.218,1223.84 341.551,1218.51 315.5,1205C 285.753,1186.52 268.92,1159.69 265,1124.5C 259.029,1031.58 296.529,962.752 377.5,918C 438.862,886.535 504.029,870.701 573,870.5C 622.606,729.682 672.606,589.015 723,448.5C 726.574,440.347 730.907,432.68 736,425.5C 736.667,423.5 736.667,421.5 736,419.5C 724.906,383.785 715.073,347.785 706.5,311.5C 707.352,305.127 709.852,299.46 714,294.5C 721.793,285.176 731.293,278.509 742.5,274.5 Z"/></g>
<g><path style="opacity:1" fill="#010000" d="M 870.5,870.5 C 798.665,870.833 726.998,870.499 655.5,869.5C 694.493,746.686 733.993,624.02 774,501.5C 806.939,624.252 839.105,747.252 870.5,870.5 Z"/></g>
<g><path style="opacity:1" fill="#fef8f8" d="M 1636.5,695.5 C 1649.84,695.333 1663.17,695.5 1676.5,696C 1690.79,697.87 1703.79,702.87 1715.5,711C 1724.91,721.325 1730.41,733.492 1732,747.5C 1732.67,855.167 1732.67,962.833 1732,1070.5C 1726.34,1134.44 1691.84,1160.28 1628.5,1148C 1606.28,1142.33 1592.12,1128.49 1586,1106.5C 1582.88,1094.69 1580.88,1082.69 1580,1070.5C 1579.02,965.146 1579.35,859.813 1581,754.5C 1585.7,721.641 1604.2,701.974 1636.5,695.5 Z"/></g>
<g><path style="opacity:1" fill="#fef8f8" d="M 1222.5,695.5 C 1282.17,695.333 1341.83,695.5 1401.5,696C 1446.82,698.31 1484.98,715.81 1516,748.5C 1540.36,779.571 1548.36,814.571 1540,853.5C 1534.34,879.656 1520.17,899.822 1497.5,914C 1553.82,947.286 1571.66,995.119 1551,1057.5C 1535.21,1097.28 1507.05,1124.12 1466.5,1138C 1445.67,1144.6 1424.33,1148.6 1402.5,1150C 1372.67,1150.17 1342.83,1150.33 1313,1150.5C 1280.47,1150.64 1247.97,1150.14 1215.5,1149C 1185.8,1144.3 1168.3,1127.13 1163,1097.5C 1161.34,1088.24 1160.34,1078.9 1160,1069.5C 1159.33,966.5 1159.33,863.5 1160,760.5C 1165.43,723.905 1186.26,702.239 1222.5,695.5 Z"/></g>
<g><path style="opacity:1" fill="#928e8e" d="M 1327.5,775.5 C 1322.83,775.5 1318.17,775.5 1313.5,775.5C 1313.5,809.167 1313.5,842.833 1313.5,876.5C 1312.5,842.671 1312.17,808.671 1312.5,774.5C 1317.69,774.179 1322.69,774.513 1327.5,775.5 Z"/></g>
<g><path style="opacity:1" fill="#000000" d="M 1327.5,775.5 C 1346.3,775.385 1364.64,778.218 1382.5,784C 1393.76,788.259 1401.26,796.092 1405,807.5C 1411.96,841.869 1398.46,863.369 1364.5,872C 1347.65,875.048 1330.65,876.548 1313.5,876.5C 1313.5,842.833 1313.5,809.167 1313.5,775.5C 1318.17,775.5 1322.83,775.5 1327.5,775.5 Z"/></g>
<g><path style="opacity:1" fill="#1c0202" d="M 655.5,869.5 C 726.998,870.499 798.665,870.833 870.5,870.5C 798.666,871.832 726.666,871.832 654.5,870.5C 654.624,869.893 654.957,869.56 655.5,869.5 Z"/></g>
<g><path style="opacity:1" fill="#000000" d="M 530.5,922.5 C 538.167,922.5 545.833,922.5 553.5,922.5C 536.547,974.859 517.714,1026.53 497,1077.5C 483.997,1107.37 466.164,1133.87 443.5,1157C 420.401,1177.77 393.734,1184.44 363.5,1177C 337.357,1167.18 322.857,1148.35 320,1120.5C 316.457,1044.07 348.29,987.902 415.5,952C 442.299,938.289 470.632,929.622 500.5,926C 510.667,924.978 520.667,923.811 530.5,922.5 Z"/></g>
<g><path style="opacity:1" fill="#938f8f" d="M 1313.5,945.5 C 1313.5,983.5 1313.5,1021.5 1313.5,1059.5C 1320.5,1059.5 1327.5,1059.5 1334.5,1059.5C 1327.35,1060.49 1320.02,1060.82 1312.5,1060.5C 1312.17,1022 1312.5,983.663 1313.5,945.5 Z"/></g>
<g><path style="opacity:1" fill="#000000" d="M 1313.5,945.5 C 1338.49,944.044 1362.82,947.21 1386.5,955C 1401.81,961.644 1411.31,973.144 1415,989.5C 1419.92,1022.2 1406.75,1043.37 1375.5,1053C 1362.03,1056.42 1348.36,1058.59 1334.5,1059.5C 1327.5,1059.5 1320.5,1059.5 1313.5,1059.5C 1313.5,1021.5 1313.5,983.5 1313.5,945.5 Z"/></g>
</svg>
